<svg width="51" height="42" viewBox="0 0 51 42" fill="none" xmlns="http://www.w3.org/2000/svg">
<path d="M31.15 13.94C31.3402 13.9413 31.5268 13.8884 31.688 13.7875C31.8492 13.6865 31.9782 13.5417 32.06 13.37L35.41 6.06997C35.4806 5.91741 35.5116 5.74951 35.5002 5.58179C35.4887 5.41407 35.4351 5.25195 35.3444 5.11041C35.2537 4.96887 35.1288 4.85248 34.9812 4.772C34.8336 4.69153 34.6681 4.64955 34.5 4.64997H20.5L19.8 2.56997C19.7304 2.36299 19.595 2.18447 19.4144 2.06168C19.2339 1.9389 19.0181 1.87859 18.8 1.88997H15.5C15.2348 1.88997 14.9804 1.99533 14.7929 2.18286C14.6054 2.3704 14.5 2.62475 14.5 2.88997C14.5 3.15519 14.6054 3.40954 14.7929 3.59708C14.9804 3.78461 15.2348 3.88997 15.5 3.88997H18.13L18.39 4.67997L21.05 12.68L19.89 14.68C19.715 14.9831 19.6226 15.3269 19.622 15.677C19.6215 16.027 19.7129 16.3711 19.887 16.6748C20.0611 16.9785 20.3119 17.2311 20.6142 17.4075C20.9166 17.5839 21.2599 17.6779 21.61 17.68H32.38C32.6452 17.68 32.8996 17.5746 33.0871 17.3871C33.2746 17.1995 33.38 16.9452 33.38 16.68C33.38 16.4148 33.2746 16.1604 33.0871 15.9729C32.8996 15.7853 32.6452 15.68 32.38 15.68H21.61L22.61 13.99L31.15 13.94ZM32.94 6.64997L30.5 11.94H22.93L21.16 6.64997H32.94ZM30.6 20.5C30.6 20.8164 30.5062 21.1258 30.3304 21.3889C30.1545 21.652 29.9047 21.8571 29.6123 21.9782C29.3199 22.0993 28.9982 22.131 28.6879 22.0692C28.3775 22.0075 28.0924 21.8551 27.8686 21.6313C27.6449 21.4076 27.4925 21.1225 27.4307 20.8121C27.369 20.5017 27.4007 20.18 27.5218 19.8877C27.6429 19.5953 27.848 19.3454 28.1111 19.1696C28.3742 18.9938 28.6835 18.9 29 18.9C29.4235 18.9026 29.829 19.072 30.1285 19.3715C30.428 19.671 30.5974 20.0764 30.6 20.5ZM23.6 20.5C23.6 20.8164 23.5062 21.1258 23.3304 21.3889C23.1545 21.652 22.9047 21.8571 22.6123 21.9782C22.3199 22.0993 21.9982 22.131 21.6879 22.0692C21.3775 22.0075 21.0924 21.8551 20.8686 21.6313C20.6449 21.4076 20.4925 21.1225 20.4307 20.8121C20.369 20.5017 20.4007 20.18 20.5218 19.8877C20.6429 19.5953 20.848 19.3454 21.1111 19.1696C21.3742 18.9938 21.6835 18.9 22 18.9C22.4235 18.9026 22.829 19.072 23.1285 19.3715C23.428 19.671 23.5974 20.0764 23.6 20.5Z" fill="#97979B"/>
<path d="M9.19825 37H8.06725C7.94159 37 7.83325 36.9675 7.74225 36.9025C7.65559 36.8332 7.57325 36.7335 7.49525 36.6035L5.03175 33.191C4.91909 33.022 4.79775 32.905 4.66775 32.84C4.53775 32.7707 4.36009 32.736 4.13475 32.736H3.01675V37H1.76225V27.6855H3.01675V31.7675H3.98525C4.18025 31.7675 4.34492 31.7372 4.47925 31.6765C4.61792 31.6158 4.75442 31.4967 4.88875 31.319L7.32625 28.043C7.39125 27.939 7.46925 27.8545 7.56025 27.7895C7.65559 27.7202 7.76609 27.6855 7.89175 27.6855H8.95125L6.13675 31.514C5.92442 31.813 5.65142 32.0188 5.31775 32.1315C5.54742 32.1922 5.74025 32.2897 5.89625 32.424C6.05659 32.554 6.20825 32.736 6.35125 32.97L9.19825 37ZM12.4913 30.3115C12.9723 30.3115 13.4056 30.3917 13.7913 30.552C14.177 30.7123 14.5063 30.9398 14.7793 31.2345C15.0523 31.5292 15.2603 31.8867 15.4033 32.307C15.5507 32.723 15.6243 33.1888 15.6243 33.7045C15.6243 34.2245 15.5507 34.6925 15.4033 35.1085C15.2603 35.5245 15.0523 35.8798 14.7793 36.1745C14.5063 36.4692 14.177 36.6967 13.7913 36.857C13.4056 37.013 12.9723 37.091 12.4913 37.091C12.006 37.091 11.5683 37.013 11.1783 36.857C10.7926 36.6967 10.4633 36.4692 10.1903 36.1745C9.91732 35.8798 9.70715 35.5245 9.55982 35.1085C9.41682 34.6925 9.34532 34.2245 9.34532 33.7045C9.34532 33.1888 9.41682 32.723 9.55982 32.307C9.70715 31.8867 9.91732 31.5292 10.1903 31.2345C10.4633 30.9398 10.7926 30.7123 11.1783 30.552C11.5683 30.3917 12.006 30.3115 12.4913 30.3115ZM12.4913 36.1875C13.1413 36.1875 13.6267 35.9708 13.9473 35.5375C14.268 35.0998 14.4283 34.491 14.4283 33.711C14.4283 32.9267 14.268 32.3157 13.9473 31.878C13.6267 31.4403 13.1413 31.2215 12.4913 31.2215C12.162 31.2215 11.8738 31.2778 11.6268 31.3905C11.3841 31.5032 11.1805 31.6657 11.0158 31.878C10.8555 32.0903 10.7341 32.3525 10.6518 32.6645C10.5738 32.9722 10.5348 33.321 10.5348 33.711C10.5348 34.491 10.6951 35.0998 11.0158 35.5375C11.3408 35.9708 11.8326 36.1875 12.4913 36.1875ZM18.2553 35.414C18.4676 35.7 18.6995 35.9015 18.9508 36.0185C19.2021 36.1355 19.4838 36.194 19.7958 36.194C20.4111 36.194 20.8835 35.9752 21.2128 35.5375C21.5421 35.0998 21.7068 34.4758 21.7068 33.6655C21.7068 33.2365 21.6678 32.8682 21.5898 32.5605C21.5161 32.2528 21.4078 32.0015 21.2648 31.8065C21.1218 31.6072 20.9463 31.462 20.7383 31.371C20.5303 31.28 20.2941 31.2345 20.0298 31.2345C19.6528 31.2345 19.3213 31.3212 19.0353 31.4945C18.7536 31.6678 18.4936 31.9127 18.2553 32.229V35.414ZM18.1968 31.436C18.4741 31.0937 18.7948 30.8185 19.1588 30.6105C19.5228 30.4025 19.9388 30.2985 20.4068 30.2985C20.7881 30.2985 21.1326 30.3722 21.4403 30.5195C21.748 30.6625 22.0101 30.877 22.2268 31.163C22.4435 31.4447 22.6103 31.7957 22.7273 32.216C22.8443 32.6363 22.9028 33.1195 22.9028 33.6655C22.9028 34.1508 22.8378 34.6037 22.7078 35.024C22.5778 35.44 22.3893 35.8018 22.1423 36.1095C21.8996 36.4128 21.6006 36.6533 21.2453 36.831C20.8943 37.0043 20.4978 37.091 20.0558 37.091C19.6528 37.091 19.3061 37.0238 19.0158 36.8895C18.7298 36.7508 18.4763 36.5602 18.2553 36.3175V39.2295H17.0918V30.4155H17.7873C17.952 30.4155 18.0538 30.4957 18.0928 30.656L18.1968 31.436ZM23.8233 31.0915C24.0703 30.8575 24.3693 30.669 24.7203 30.526C25.0756 30.383 25.5024 30.3115 26.0008 30.3115C26.3994 30.3115 26.7504 30.3613 27.0538 30.461C27.3571 30.5563 27.6106 30.6842 27.8143 30.8445C28.0223 31.0048 28.1783 31.189 28.2823 31.397C28.3906 31.6007 28.4448 31.813 28.4448 32.034C28.4448 32.164 28.4231 32.3005 28.3798 32.4435C28.3408 32.5865 28.2736 32.723 28.1783 32.853C28.0829 32.983 27.9594 33.1043 27.8078 33.217C27.6561 33.3297 27.4676 33.4207 27.2423 33.49C27.6626 33.6157 27.9919 33.8172 28.2303 34.0945C28.4729 34.3718 28.5943 34.712 28.5943 35.115C28.5943 35.4183 28.5249 35.6935 28.3863 35.9405C28.2476 36.1832 28.0613 36.3912 27.8273 36.5645C27.5933 36.7335 27.3203 36.8635 27.0083 36.9545C26.7006 37.0455 26.3778 37.091 26.0398 37.091C25.8274 37.091 25.6108 37.0715 25.3898 37.0325C25.1731 36.9935 24.9608 36.9328 24.7528 36.8505C24.5448 36.7638 24.3476 36.6577 24.1613 36.532C23.9793 36.4063 23.8168 36.2547 23.6738 36.077L23.9988 35.6545C24.0508 35.5808 24.1244 35.544 24.2198 35.544C24.2978 35.544 24.3801 35.5787 24.4668 35.648C24.5578 35.713 24.6683 35.7867 24.7983 35.869C24.9283 35.9513 25.0864 36.0272 25.2728 36.0965C25.4634 36.1615 25.6953 36.194 25.9683 36.194C26.2066 36.194 26.4189 36.1658 26.6053 36.1095C26.7959 36.0488 26.9563 35.9665 27.0863 35.8625C27.2163 35.7585 27.3159 35.635 27.3853 35.492C27.4546 35.349 27.4893 35.193 27.4893 35.024C27.4893 34.699 27.3528 34.4368 27.0798 34.2375C26.8111 34.0382 26.4016 33.9385 25.8513 33.9385H25.1038V33.1715H25.8513C26.0896 33.1715 26.3041 33.1477 26.4948 33.1C26.6854 33.048 26.8479 32.9787 26.9823 32.892C27.1166 32.8053 27.2184 32.7013 27.2878 32.58C27.3571 32.4543 27.3918 32.32 27.3918 32.177C27.3918 32.047 27.3614 31.9235 27.3008 31.8065C27.2444 31.6895 27.1556 31.5877 27.0343 31.501C26.9173 31.4143 26.7699 31.345 26.5923 31.293C26.4146 31.241 26.2066 31.215 25.9683 31.215C25.7083 31.215 25.4873 31.241 25.3053 31.293C25.1276 31.345 24.9759 31.4013 24.8503 31.462C24.7289 31.5227 24.6293 31.579 24.5513 31.631C24.4733 31.683 24.4061 31.709 24.3498 31.709C24.2934 31.709 24.2458 31.6982 24.2068 31.6765C24.1721 31.6548 24.1331 31.6093 24.0898 31.54L23.8233 31.0915ZM35.7276 30.4155V37H34.5706V32.528C34.5706 32.4413 34.5749 32.3482 34.5836 32.2485C34.5923 32.1488 34.6031 32.0492 34.6161 31.9495C34.5771 32.0362 34.5381 32.1163 34.4991 32.19C34.4601 32.2637 34.4189 32.3308 34.3756 32.3915L31.1971 36.714C31.1494 36.7833 31.0888 36.8505 31.0151 36.9155C30.9458 36.9762 30.8678 37.0065 30.7811 37.0065H30.0791V30.422H31.2426V34.894C31.2426 34.9763 31.2383 35.0673 31.2296 35.167C31.2209 35.2623 31.2101 35.3598 31.1971 35.4595C31.2361 35.3772 31.2751 35.3013 31.3141 35.232C31.3531 35.1583 31.3921 35.0912 31.4311 35.0305L34.6096 30.708C34.6573 30.6387 34.7179 30.5737 34.7916 30.513C34.8653 30.448 34.9454 30.4155 35.0321 30.4155H35.7276ZM43.0426 30.4155V37H41.8791V33.919H38.7201V37H37.5566V30.4155H38.7201V33.0415H41.8791V30.4155H43.0426ZM48.4503 34.036C47.9173 34.0533 47.4623 34.0967 47.0853 34.166C46.7127 34.231 46.4072 34.3177 46.1688 34.426C45.9348 34.5343 45.7637 34.6622 45.6553 34.8095C45.5513 34.9568 45.4993 35.1215 45.4993 35.3035C45.4993 35.4768 45.5275 35.6263 45.5838 35.752C45.6402 35.8777 45.716 35.9817 45.8113 36.064C45.911 36.142 46.0258 36.2005 46.1558 36.2395C46.2902 36.2742 46.4332 36.2915 46.5848 36.2915C46.7885 36.2915 46.9748 36.272 47.1438 36.233C47.3128 36.1897 47.471 36.129 47.6183 36.051C47.77 35.973 47.913 35.8798 48.0473 35.7715C48.186 35.6632 48.3203 35.5397 48.4503 35.401V34.036ZM44.7128 31.345C45.0768 30.994 45.469 30.7318 45.8893 30.5585C46.3097 30.3852 46.7755 30.2985 47.2868 30.2985C47.6552 30.2985 47.9823 30.3592 48.2683 30.4805C48.5543 30.6018 48.7948 30.7708 48.9898 30.9875C49.1848 31.2042 49.3322 31.4663 49.4318 31.774C49.5315 32.0817 49.5813 32.4197 49.5813 32.788V37H49.0678C48.9552 37 48.8685 36.9827 48.8078 36.948C48.7472 36.909 48.6995 36.8353 48.6648 36.727L48.5348 36.103C48.3615 36.2633 48.1925 36.4063 48.0278 36.532C47.8632 36.6533 47.6898 36.7573 47.5078 36.844C47.3258 36.9263 47.1308 36.9892 46.9228 37.0325C46.7192 37.0802 46.4917 37.104 46.2403 37.104C45.9847 37.104 45.7442 37.0693 45.5188 37C45.2935 36.9263 45.0963 36.818 44.9273 36.675C44.7627 36.532 44.6305 36.3522 44.5308 36.1355C44.4355 35.9145 44.3878 35.6545 44.3878 35.3555C44.3878 35.0955 44.4593 34.8463 44.6023 34.608C44.7453 34.3653 44.9772 34.1508 45.2978 33.9645C45.6185 33.7782 46.0367 33.6265 46.5523 33.5095C47.068 33.3882 47.7007 33.3188 48.4503 33.3015V32.788C48.4503 32.2767 48.3398 31.891 48.1188 31.631C47.8978 31.3667 47.575 31.2345 47.1503 31.2345C46.8643 31.2345 46.6238 31.2713 46.4288 31.345C46.2382 31.4143 46.0713 31.4945 45.9283 31.5855C45.7897 31.6722 45.6683 31.7523 45.5643 31.826C45.4647 31.8953 45.365 31.93 45.2653 31.93C45.1873 31.93 45.1202 31.9105 45.0638 31.8715C45.0075 31.8282 44.9598 31.7762 44.9208 31.7155L44.7128 31.345Z" fill="#97979B"/>
</svg>
