<svg width="39" height="42" viewBox="0 0 39 42" fill="none" xmlns="http://www.w3.org/2000/svg">
<path d="M19.5 3.5C20.0933 3.5 20.6733 3.67595 21.1667 4.00559C21.66 4.33524 22.0445 4.80377 22.2716 5.35195C22.4987 5.90013 22.5581 6.50333 22.4423 7.08527C22.3266 7.66721 22.0408 8.20176 21.6213 8.62132C21.2017 9.04088 20.6672 9.3266 20.0852 9.44236C19.5033 9.55811 18.9001 9.4987 18.3519 9.27164C17.8037 9.04458 17.3352 8.66006 17.0056 8.16671C16.6759 7.67336 16.5 7.09334 16.5 6.5C16.5 5.70435 16.816 4.94129 17.3787 4.37868C17.9413 3.81607 18.7043 3.5 19.5 3.5ZM19.5 1.5C18.5111 1.5 17.5444 1.79324 16.7221 2.34265C15.8999 2.89206 15.259 3.67295 14.8806 4.58658C14.5021 5.50021 14.4031 6.50555 14.596 7.47545C14.789 8.44536 15.2652 9.33627 15.9644 10.0355C16.6637 10.7348 17.5546 11.211 18.5245 11.4039C19.4944 11.5969 20.4998 11.4978 21.4134 11.1194C22.327 10.741 23.1079 10.1001 23.6573 9.27785C24.2067 8.45561 24.5 7.48891 24.5 6.5C24.5 5.17392 23.9732 3.90215 23.0355 2.96447C22.0978 2.02678 20.8261 1.5 19.5 1.5ZM22.03 15C23.1826 14.9998 24.3 15.3978 25.1929 16.1267C26.0858 16.8556 26.6994 17.8706 26.93 19L27.21 20.39H11.79L12.07 19C12.3005 17.8706 12.9142 16.8556 13.8071 16.1267C14.7 15.3978 15.8173 14.9998 16.97 15H22.03ZM22.03 13H16.97C15.352 13.0011 13.7844 13.5626 12.5338 14.589C11.2831 15.6154 10.4266 17.0434 10.11 18.63L9.82997 20C9.77161 20.2932 9.77974 20.5958 9.85376 20.8855C9.92779 21.1752 10.0658 21.4446 10.2577 21.6739C10.4496 21.9032 10.6904 22.0865 10.9625 22.2105C11.2346 22.3344 11.531 22.3958 11.83 22.39H27.21C27.5089 22.3958 27.8053 22.3344 28.0774 22.2105C28.3495 22.0865 28.5904 21.9032 28.7822 21.6739C28.9741 21.4446 29.1122 21.1752 29.1862 20.8855C29.2602 20.5958 29.2683 20.2932 29.21 20L28.93 18.61C28.6079 17.0203 27.7438 15.5918 26.4853 14.5685C25.2267 13.5453 23.6519 12.9909 22.03 13Z" fill="#97979B"/>
<path d="M5.35402 35.999C5.71369 35.999 6.02352 35.9578 6.28352 35.8755C6.54352 35.7932 6.75585 35.6783 6.92052 35.531C7.08952 35.3793 7.21302 35.2017 7.29102 34.998C7.36902 34.79 7.40802 34.5625 7.40802 34.3155C7.40802 33.8345 7.23685 33.4553 6.89452 33.178C6.55219 32.8963 6.03869 32.7555 5.35402 32.7555H3.33902V35.999H5.35402ZM3.33902 28.68V31.8585H5.00302C5.35835 31.8585 5.66602 31.8195 5.92602 31.7415C6.19035 31.6635 6.40702 31.5552 6.57602 31.4165C6.74935 31.2778 6.87719 31.111 6.95952 30.916C7.04185 30.7167 7.08302 30.5 7.08302 30.266C7.08302 29.7157 6.91835 29.3148 6.58902 29.0635C6.25969 28.8078 5.74835 28.68 5.05502 28.68H3.33902ZM5.05502 27.6855C5.62702 27.6855 6.11885 27.7418 6.53052 27.8545C6.94652 27.9672 7.28669 28.1275 7.55102 28.3355C7.81969 28.5435 8.01685 28.7992 8.14252 29.1025C8.26819 29.4015 8.33102 29.7395 8.33102 30.1165C8.33102 30.3462 8.29419 30.5672 8.22052 30.7795C8.15119 30.9875 8.04502 31.1825 7.90202 31.3645C7.75902 31.5465 7.57702 31.7112 7.35602 31.8585C7.13935 32.0015 6.88369 32.1185 6.58902 32.2095C7.27369 32.3395 7.78719 32.5843 8.12952 32.944C8.47619 33.2993 8.64952 33.7673 8.64952 34.348C8.64952 34.7423 8.57585 35.102 8.42852 35.427C8.28552 35.752 8.07319 36.0315 7.79152 36.2655C7.51419 36.4995 7.17185 36.6815 6.76452 36.8115C6.35719 36.9372 5.89352 37 5.37352 37H2.08452V27.6855H5.05502ZM12.8898 30.3115C13.3708 30.3115 13.8041 30.3917 14.1898 30.552C14.5754 30.7123 14.9048 30.9398 15.1778 31.2345C15.4508 31.5292 15.6588 31.8867 15.8018 32.307C15.9491 32.723 16.0228 33.1888 16.0228 33.7045C16.0228 34.2245 15.9491 34.6925 15.8018 35.1085C15.6588 35.5245 15.4508 35.8798 15.1778 36.1745C14.9048 36.4692 14.5754 36.6967 14.1898 36.857C13.8041 37.013 13.3708 37.091 12.8898 37.091C12.4044 37.091 11.9668 37.013 11.5768 36.857C11.1911 36.6967 10.8618 36.4692 10.5888 36.1745C10.3158 35.8798 10.1056 35.5245 9.95825 35.1085C9.81525 34.6925 9.74375 34.2245 9.74375 33.7045C9.74375 33.1888 9.81525 32.723 9.95825 32.307C10.1056 31.8867 10.3158 31.5292 10.5888 31.2345C10.8618 30.9398 11.1911 30.7123 11.5768 30.552C11.9668 30.3917 12.4044 30.3115 12.8898 30.3115ZM12.8898 36.1875C13.5398 36.1875 14.0251 35.9708 14.3458 35.5375C14.6664 35.0998 14.8268 34.491 14.8268 33.711C14.8268 32.9267 14.6664 32.3157 14.3458 31.878C14.0251 31.4403 13.5398 31.2215 12.8898 31.2215C12.5604 31.2215 12.2723 31.2778 12.0253 31.3905C11.7826 31.5032 11.5789 31.6657 11.4143 31.878C11.2539 32.0903 11.1326 32.3525 11.0503 32.6645C10.9723 32.9722 10.9333 33.321 10.9333 33.711C10.9333 34.491 11.0936 35.0998 11.4143 35.5375C11.7393 35.9708 12.2311 36.1875 12.8898 36.1875ZM23.1387 30.4155V37H21.9817V32.528C21.9817 32.4413 21.9861 32.3482 21.9947 32.2485C22.0034 32.1488 22.0142 32.0492 22.0272 31.9495C21.9882 32.0362 21.9492 32.1163 21.9102 32.19C21.8712 32.2637 21.8301 32.3308 21.7867 32.3915L18.6082 36.714C18.5606 36.7833 18.4999 36.8505 18.4262 36.9155C18.3569 36.9762 18.2789 37.0065 18.1922 37.0065H17.4902V30.422H18.6537V34.894C18.6537 34.9763 18.6494 35.0673 18.6407 35.167C18.6321 35.2623 18.6212 35.3598 18.6082 35.4595C18.6472 35.3772 18.6862 35.3013 18.7252 35.232C18.7642 35.1583 18.8032 35.0912 18.8422 35.0305L22.0207 30.708C22.0684 30.6387 22.1291 30.5737 22.2027 30.513C22.2764 30.448 22.3566 30.4155 22.4432 30.4155H23.1387ZM20.3892 28.823C20.5669 28.823 20.7164 28.8035 20.8377 28.7645C20.9591 28.7212 21.0566 28.654 21.1302 28.563C21.2082 28.472 21.2646 28.355 21.2992 28.212C21.3339 28.069 21.3512 27.8935 21.3512 27.6855H22.0272C22.1096 27.6855 22.1724 27.7223 22.2157 27.796C22.2591 27.8697 22.2807 27.9498 22.2807 28.0365C22.2807 28.2532 22.2374 28.4482 22.1507 28.6215C22.0641 28.7948 21.9384 28.9443 21.7737 29.07C21.6134 29.1913 21.4162 29.2845 21.1822 29.3495C20.9482 29.4145 20.6839 29.447 20.3892 29.447C20.0946 29.447 19.8302 29.4145 19.5962 29.3495C19.3622 29.2845 19.1629 29.1913 18.9982 29.07C18.8379 28.9443 18.7144 28.7948 18.6277 28.6215C18.5411 28.4482 18.4977 28.2532 18.4977 28.0365C18.4977 27.9498 18.5194 27.8697 18.5627 27.796C18.6061 27.7223 18.6689 27.6855 18.7512 27.6855H19.4272C19.4272 27.8935 19.4446 28.069 19.4792 28.212C19.5139 28.355 19.5681 28.472 19.6417 28.563C19.7197 28.654 19.8194 28.7212 19.9407 28.7645C20.0621 28.8035 20.2116 28.823 20.3892 28.823ZM30.4408 31.2995H27.9123V37H26.7553V31.2995H24.2268V30.4155H30.4408V31.2995ZM37.1924 30.4155V37H36.0354V32.528C36.0354 32.4413 36.0398 32.3482 36.0484 32.2485C36.0571 32.1488 36.0679 32.0492 36.0809 31.9495C36.0419 32.0362 36.0029 32.1163 35.9639 32.19C35.9249 32.2637 35.8838 32.3308 35.8404 32.3915L32.6619 36.714C32.6143 36.7833 32.5536 36.8505 32.4799 36.9155C32.4106 36.9762 32.3326 37.0065 32.2459 37.0065H31.5439V30.422H32.7074V34.894C32.7074 34.9763 32.7031 35.0673 32.6944 35.167C32.6858 35.2623 32.6749 35.3598 32.6619 35.4595C32.7009 35.3772 32.7399 35.3013 32.7789 35.232C32.8179 35.1583 32.8569 35.0912 32.8959 35.0305L36.0744 30.708C36.1221 30.6387 36.1828 30.5737 36.2564 30.513C36.3301 30.448 36.4103 30.4155 36.4969 30.4155H37.1924Z" fill="#97979B"/>
</svg>
