<svg width="111" height="16" viewBox="0 0 111 16" fill="none" xmlns="http://www.w3.org/2000/svg">
<path d="M0.727051 12L7.65796 16V0L0.727051 4V12Z" fill="#FFDA6B"/>
<path d="M14.5891 12L7.6582 16V0L14.5891 4V12Z" fill="#EB9500"/>
<path d="M7.65796 2.51636L12.407 5.25818V10.7418L7.65796 13.4836L2.90887 10.7418V5.25818L7.65796 2.51636ZM7.65796 0L0.727051 4V12L7.65796 16L14.5889 12V4L7.65796 0Z" fill="#FFC108"/>
<path d="M30.4937 12.0184C30.596 12.0184 30.6855 12.0598 30.7623 12.1427L31.5009 12.9358C30.9381 13.5857 30.2539 14.0921 29.4482 14.4553C28.6488 14.8184 27.68 15 26.5418 15C25.557 15 24.6617 14.8312 23.856 14.4935C23.0503 14.1495 22.3628 13.6717 21.7937 13.0601C21.2246 12.4421 20.7834 11.7031 20.47 10.843C20.1567 9.98293 20 9.03686 20 8.00478C20 6.9727 20.1631 6.02662 20.4892 5.16655C20.8153 4.30649 21.2725 3.56746 21.8609 2.94949C22.4556 2.33151 23.1654 1.8537 23.9903 1.51604C24.8152 1.17201 25.7265 1 26.724 1C27.7024 1 28.5657 1.15609 29.3139 1.46826C30.0621 1.78043 30.7207 2.2041 31.2898 2.73925L30.6759 3.58976C30.6376 3.65347 30.5864 3.70762 30.5225 3.75222C30.4649 3.79044 30.385 3.80956 30.2827 3.80956C30.1676 3.80956 30.0269 3.74903 29.8606 3.62799C29.6944 3.50057 29.4769 3.36041 29.2084 3.20751C28.9398 3.05461 28.6041 2.91763 28.2012 2.79659C27.7983 2.66917 27.3027 2.60546 26.7144 2.60546C26.0046 2.60546 25.3556 2.72969 24.7672 2.97816C24.1789 3.22025 23.6706 3.57383 23.2421 4.03891C22.8201 4.50398 22.4907 5.07099 22.2541 5.73993C22.0175 6.40887 21.8992 7.16382 21.8992 8.00478C21.8992 8.85847 22.0207 9.61979 22.2637 10.2887C22.5131 10.9577 22.8488 11.5247 23.2709 11.9898C23.6993 12.4485 24.2013 12.7989 24.7768 13.041C25.3588 13.283 25.9854 13.4041 26.6569 13.4041C27.0661 13.4041 27.4338 13.3818 27.76 13.3372C28.0925 13.2862 28.3962 13.2098 28.6712 13.1078C28.9526 13.0059 29.2116 12.8785 29.4482 12.7256C29.6912 12.5663 29.931 12.3784 30.1676 12.1618C30.2763 12.0662 30.385 12.0184 30.4937 12.0184Z" fill="#26262E"/>
<path d="M39.0985 5.64437C39.188 5.50421 39.3063 5.38953 39.4534 5.30034C39.6005 5.21115 39.7572 5.16655 39.9234 5.16655H41.2567L38.734 8.85529C38.5805 9.09101 38.4207 9.28532 38.2544 9.43823C38.0881 9.58476 37.8835 9.69943 37.6405 9.78225C37.9475 9.86507 38.2064 9.99568 38.4175 10.1741C38.6285 10.3461 38.8171 10.5691 38.9834 10.843L41.5349 14.8471H40.3455C40.0385 14.8471 39.8019 14.7961 39.6357 14.6942C39.4694 14.5923 39.3255 14.4457 39.204 14.2546L37.3144 11.2444C37.0138 10.7474 36.563 10.499 35.9619 10.499H34.9164V14.8567H33.1994V5.16655H34.9164V9.35222H35.8372C36.3488 9.35222 36.7485 9.13561 37.0362 8.70239L39.0985 5.64437Z" fill="#26262E"/>
<path d="M48.3947 10.4894C47.6082 10.5149 46.9367 10.5786 46.3804 10.6805C45.8304 10.7761 45.3796 10.9035 45.0279 11.0628C44.6826 11.2221 44.43 11.41 44.2701 11.6266C44.1166 11.8432 44.0399 12.0853 44.0399 12.3529C44.0399 12.6077 44.0815 12.8275 44.1646 13.0123C44.2477 13.197 44.3596 13.3499 44.5003 13.471C44.6474 13.5857 44.8169 13.6717 45.0087 13.729C45.2069 13.78 45.418 13.8055 45.6418 13.8055C45.9423 13.8055 46.2173 13.7768 46.4667 13.7195C46.7161 13.6557 46.9495 13.5666 47.1669 13.4519C47.3907 13.3372 47.6018 13.2002 47.8 13.041C48.0046 12.8817 48.2029 12.7001 48.3947 12.4962V10.4894ZM42.8793 6.5331C43.4164 6.01706 43.9951 5.63163 44.6154 5.37679C45.2357 5.12196 45.9232 4.99454 46.6777 4.99454C47.2213 4.99454 47.7041 5.08373 48.1261 5.26212C48.5482 5.4405 48.9031 5.68896 49.1908 6.00751C49.4786 6.32605 49.696 6.71149 49.8431 7.16382C49.9902 7.61615 50.0637 8.11308 50.0637 8.65461V14.8471H49.3059C49.1397 14.8471 49.0118 14.8216 48.9223 14.7706C48.8327 14.7133 48.7624 14.605 48.7112 14.4457L48.5194 13.5283C48.2636 13.764 48.0142 13.9743 47.7712 14.159C47.5282 14.3374 47.2724 14.4903 47.0039 14.6177C46.7353 14.7388 46.4475 14.8312 46.1406 14.8949C45.84 14.965 45.5043 15 45.1334 15C44.7561 15 44.4012 14.949 44.0687 14.8471C43.7362 14.7388 43.4452 14.5795 43.1958 14.3693C42.9528 14.159 42.7578 13.8947 42.6107 13.5761C42.47 13.2512 42.3997 12.8689 42.3997 12.4294C42.3997 12.0471 42.5052 11.6808 42.7162 11.3304C42.9272 10.9736 43.2694 10.6582 43.7426 10.3843C44.2158 10.1104 44.8329 9.88737 45.5938 9.71536C46.3548 9.53697 47.2884 9.43504 48.3947 9.40956V8.65461C48.3947 7.90284 48.2316 7.33584 47.9055 6.95358C47.5794 6.56496 47.103 6.37065 46.4763 6.37065C46.0542 6.37065 45.6993 6.4248 45.4116 6.5331C45.1302 6.63504 44.884 6.7529 44.673 6.88669C44.4684 7.01411 44.2893 7.13197 44.1358 7.24027C43.9888 7.34221 43.8417 7.39317 43.6946 7.39317C43.5795 7.39317 43.4804 7.3645 43.3972 7.30717C43.3141 7.24346 43.2438 7.16701 43.1862 7.07782L42.8793 6.5331Z" fill="#26262E"/>
<path d="M61 5.16655V14.8471H59.2926V8.27236C59.2926 8.14494 59.299 8.00796 59.3118 7.86143C59.3246 7.7149 59.3406 7.56837 59.3598 7.42184C59.3022 7.54926 59.2447 7.66712 59.1871 7.77543C59.1296 7.88373 59.0688 7.98248 59.0049 8.07167L54.3143 14.4266C54.244 14.5286 54.1545 14.6273 54.0458 14.7229C53.9435 14.8121 53.8283 14.8567 53.7005 14.8567H52.6645V5.17611H54.3815V11.7509C54.3815 11.8719 54.3751 12.0057 54.3623 12.1522C54.3495 12.2924 54.3335 12.4357 54.3143 12.5823C54.3719 12.4612 54.4294 12.3497 54.487 12.2478C54.5446 12.1395 54.6021 12.0407 54.6597 11.9515L59.3502 5.59659C59.4205 5.49465 59.51 5.39909 59.6187 5.3099C59.7275 5.21433 59.8458 5.16655 59.9736 5.16655H61ZM56.9426 2.82526C57.2047 2.82526 57.4254 2.79659 57.6044 2.73925C57.7835 2.67554 57.9273 2.57679 58.0361 2.443C58.1512 2.30922 58.2343 2.1372 58.2854 1.92696C58.3366 1.71672 58.3622 1.4587 58.3622 1.1529H59.3598C59.4813 1.1529 59.574 1.20705 59.6379 1.31536C59.7019 1.42366 59.7339 1.54153 59.7339 1.66894C59.7339 1.98749 59.6699 2.27418 59.542 2.52901C59.4141 2.78385 59.2287 3.00364 58.9857 3.1884C58.7491 3.36678 58.4581 3.50375 58.1128 3.59932C57.7675 3.69488 57.3774 3.74266 56.9426 3.74266C56.5077 3.74266 56.1176 3.69488 55.7723 3.59932C55.427 3.50375 55.1329 3.36678 54.8899 3.1884C54.6533 3.00364 54.471 2.78385 54.3431 2.52901C54.2152 2.27418 54.1513 1.98749 54.1513 1.66894C54.1513 1.54153 54.1833 1.42366 54.2472 1.31536C54.3111 1.20705 54.4039 1.1529 54.5254 1.1529H55.5229C55.5229 1.4587 55.5485 1.71672 55.5997 1.92696C55.6508 2.1372 55.7308 2.30922 55.8395 2.443C55.9546 2.57679 56.1017 2.67554 56.2807 2.73925C56.4598 2.79659 56.6804 2.82526 56.9426 2.82526Z" fill="#26262E"/>
<path d="M79.342 1V14.8479H76.5509V6.88323C76.5509 6.69948 76.554 6.49989 76.5602 6.28445C76.5727 6.06902 76.5914 5.85042 76.6164 5.62865L72.9917 12.7475C72.8793 12.9692 72.7263 13.1371 72.5327 13.2512C72.3454 13.3652 72.13 13.4223 71.8864 13.4223H71.4556C71.2121 13.4223 70.9935 13.3652 70.7999 13.2512C70.6126 13.1371 70.4628 12.9692 70.3504 12.7475L66.7256 5.60964C66.7443 5.83775 66.7599 6.06268 66.7724 6.28445C66.7849 6.49989 66.7912 6.69948 66.7912 6.88323V14.8479H64V1H66.4165C66.5539 1 66.6725 1.00317 66.7724 1.0095C66.8786 1.01584 66.9722 1.03485 67.0534 1.06653C67.1346 1.09821 67.2064 1.1489 67.2688 1.2186C67.3375 1.28196 67.4031 1.37384 67.4655 1.49423L70.9779 8.51799C71.1028 8.75877 71.2214 9.00905 71.3338 9.26884C71.4525 9.52863 71.5649 9.79475 71.671 10.0672C71.7772 9.78841 71.8864 9.51595 71.9988 9.24983C72.1175 8.98371 72.2424 8.73026 72.3735 8.48948L75.8765 1.49423C75.9389 1.37384 76.0014 1.28196 76.0638 1.2186C76.1325 1.1489 76.2074 1.09821 76.2886 1.06653C76.3698 1.03485 76.4603 1.01584 76.5602 1.0095C76.6664 1.00317 76.7881 1 76.9255 1H79.342Z" fill="#26262E"/>
<path d="M86.4551 10.8371C85.8744 10.8624 85.3967 10.9131 85.0221 10.9891C84.6474 11.0652 84.3508 11.1602 84.1323 11.2743C83.9137 11.3883 83.7608 11.5182 83.6733 11.664C83.5922 11.8097 83.5516 11.9681 83.5516 12.1392C83.5516 12.475 83.6421 12.7126 83.8232 12.852C84.0043 12.9851 84.2697 13.0516 84.6193 13.0516C84.994 13.0516 85.3218 12.9851 85.6028 12.852C85.8838 12.7189 86.1679 12.5035 86.4551 12.2057V10.8371ZM81.2287 6.36049C81.8157 5.83458 82.4651 5.4449 83.1769 5.19145C83.895 4.93166 84.6631 4.80176 85.481 4.80176C86.068 4.80176 86.5956 4.89998 87.064 5.0964C87.5385 5.28649 87.9381 5.55578 88.2628 5.90428C88.5938 6.24644 88.8467 6.65513 89.0215 7.13035C89.1964 7.60557 89.2838 8.12514 89.2838 8.68907V14.8479H87.9538C87.679 14.8479 87.4698 14.8099 87.3262 14.7339C87.1888 14.6578 87.0733 14.4994 86.9797 14.2587L86.7736 13.7169C86.5301 13.926 86.2959 14.1098 86.0711 14.2682C85.8463 14.4266 85.6122 14.5628 85.3687 14.6769C85.1314 14.7846 84.8754 14.8638 84.6006 14.9145C84.3321 14.9715 84.0324 15 83.7014 15C83.2581 15 82.8554 14.943 82.4932 14.8289C82.131 14.7085 81.8219 14.5343 81.5659 14.3062C81.3162 14.0781 81.1226 13.7961 80.9852 13.4603C80.8478 13.1181 80.7792 12.7253 80.7792 12.2817C80.7792 11.9269 80.8666 11.5689 81.0414 11.2077C81.2163 10.8402 81.5191 10.5076 81.9499 10.2098C82.3808 9.90563 82.9615 9.65218 83.6921 9.44942C84.4227 9.24666 85.3437 9.13261 86.4551 9.10726V8.68907C86.4551 8.11247 86.3365 7.69744 86.0992 7.44399C85.8682 7.1842 85.5372 7.05431 85.1064 7.05431C84.763 7.05431 84.482 7.09233 84.2634 7.16836C84.0449 7.2444 83.8482 7.32994 83.6733 7.42498C83.5048 7.52003 83.3393 7.60557 83.1769 7.6816C83.0146 7.75764 82.821 7.79565 82.5962 7.79565C82.3964 7.79565 82.2278 7.74496 82.0904 7.64358C81.9531 7.5422 81.8407 7.42181 81.7533 7.28242L81.2287 6.36049Z" fill="#26262E"/>
<path d="M99.9441 4.99185V14.8479H97.0405V10.685H94.0433V14.8479H91.1398V4.99185H94.0433V8.57502H97.0405V4.99185H99.9441Z" fill="#26262E"/>
<path d="M111 4.99185V14.8479H108.096V9.8296C108.096 9.66486 108.106 9.48744 108.125 9.29735C108.143 9.10093 108.168 8.90133 108.199 8.69857C108.05 9.04073 107.89 9.32903 107.722 9.56348C107.709 9.57615 107.656 9.65218 107.563 9.79158C107.475 9.93098 107.36 10.1116 107.216 10.3333C107.079 10.5488 106.919 10.7927 106.738 11.0652C106.563 11.3376 106.382 11.6164 106.195 11.9016C105.758 12.5669 105.268 13.3177 104.725 14.1541C104.668 14.2365 104.603 14.322 104.528 14.4107C104.459 14.4931 104.381 14.5691 104.294 14.6388C104.206 14.7022 104.113 14.7561 104.013 14.8004C103.913 14.8384 103.807 14.8574 103.694 14.8574H101.915V5.00136H104.818V10.0197C104.818 10.1781 104.809 10.3555 104.79 10.5519C104.771 10.7484 104.746 10.948 104.715 11.1507C104.865 10.8086 105.024 10.5203 105.193 10.2858C105.199 10.2731 105.249 10.1971 105.343 10.0577C105.436 9.91831 105.552 9.74089 105.689 9.52546C105.833 9.30369 105.992 9.05657 106.167 8.78411C106.348 8.51165 106.532 8.23286 106.72 7.94773C107.157 7.28242 107.647 6.53157 108.19 5.69518C108.246 5.61281 108.309 5.53044 108.377 5.44806C108.452 5.35936 108.534 5.28332 108.621 5.21996C108.708 5.15026 108.802 5.0964 108.902 5.05838C109.002 5.01403 109.108 4.99185 109.22 4.99185H111Z" fill="#26262E"/>
</svg>
