<svg width="49" height="42" viewBox="0 0 49 42" fill="none" xmlns="http://www.w3.org/2000/svg">
<path d="M22.3236 15.2051V20.0831C22.3311 20.1993 22.3149 20.3158 22.2761 20.4256C22.2373 20.5353 22.1766 20.6361 22.0978 20.7218C22.019 20.8075 21.9236 20.8763 21.8174 20.9241C21.7112 20.972 21.5965 20.9978 21.4801 21H16.3453C16.2289 20.9978 16.1142 20.972 16.008 20.9241C15.9018 20.8763 15.8064 20.8075 15.7276 20.7218C15.6488 20.6361 15.5881 20.5353 15.5493 20.4256C15.5105 20.3158 15.4943 20.1993 15.5018 20.0831V15.2051C15.4943 15.0889 15.5105 14.9724 15.5493 14.8626C15.5881 14.7528 15.6488 14.652 15.7276 14.5663C15.8064 14.4807 15.9018 14.4118 16.008 14.364C16.1142 14.3162 16.2289 14.2904 16.3453 14.2882H21.4801C21.5965 14.2904 21.7112 14.3162 21.8174 14.364C21.9236 14.4118 22.019 14.4807 22.0978 14.5663C22.1766 14.652 22.2373 14.7528 22.2761 14.8626C22.3149 14.9724 22.3311 15.0889 22.3236 15.2051ZM31.8321 14.2882H26.6973C26.5809 14.2904 26.4662 14.3162 26.36 14.364C26.2538 14.4118 26.1584 14.4807 26.0796 14.5663C26.0008 14.652 25.9401 14.7528 25.9013 14.8626C25.8625 14.9724 25.8463 15.0889 25.8538 15.2051V20.0831C25.8463 20.1993 25.8625 20.3158 25.9013 20.4256C25.9401 20.5353 26.0008 20.6361 26.0796 20.7218C26.1584 20.8075 26.2538 20.8763 26.36 20.9241C26.4662 20.972 26.5809 20.9978 26.6973 21H31.8321C31.9485 20.9978 32.0633 20.972 32.1694 20.9241C32.2756 20.8763 32.371 20.8075 32.4498 20.7218C32.5286 20.6361 32.5893 20.5353 32.6281 20.4256C32.6669 20.3158 32.6831 20.1993 32.6756 20.0831V15.2051C32.6781 15.0919 32.6582 14.9793 32.6171 14.8738C32.576 14.7683 32.5146 14.6719 32.4362 14.5902C32.3579 14.5084 32.2642 14.4429 32.1606 14.3974C32.0569 14.3519 31.9619 14.2905 31.8487 14.2882H31.8321ZM21.4801 4.08286H16.3453C16.2289 4.0851 16.1142 4.1109 16.008 4.15871C15.9018 4.20653 15.8064 4.27536 15.7276 4.36105C15.6488 4.44674 15.5881 4.54751 15.5493 4.65729C15.5105 4.76707 15.4943 4.88358 15.5018 4.99978V9.85028C15.4993 9.96302 15.5193 10.0751 15.5605 10.1801C15.6017 10.2851 15.6633 10.3809 15.7417 10.4619C15.8202 10.5429 15.9139 10.6075 16.0175 10.6521C16.1212 10.6966 16.2326 10.7202 16.3453 10.7213H21.4801C21.5928 10.7202 21.7043 10.6966 21.8079 10.6521C21.9115 10.6075 22.0052 10.5429 22.0837 10.4619C22.1621 10.3809 22.2237 10.2851 22.2649 10.1801C22.3061 10.0751 22.3261 9.96302 22.3236 9.85028V4.9631C22.3261 4.84991 22.3062 4.73734 22.2651 4.63184C22.224 4.52634 22.1626 4.42996 22.0842 4.34822C22.0059 4.26647 21.9122 4.20097 21.8085 4.15543C21.7049 4.1099 21.5933 4.08524 21.4801 4.08286ZM28.7329 3.2393L25.0652 6.90697C24.9851 6.98701 24.9215 7.08207 24.8782 7.18669C24.8348 7.29132 24.8125 7.40346 24.8125 7.51672C24.8125 7.62997 24.8348 7.74212 24.8782 7.84675C24.9215 7.95137 24.9851 8.04642 25.0652 8.12647L28.5128 11.5832C28.5929 11.6634 28.6879 11.7269 28.7926 11.7703C28.8972 11.8137 29.0093 11.836 29.1226 11.836C29.2358 11.836 29.348 11.8137 29.4526 11.7703C29.5572 11.7269 29.6523 11.6634 29.7323 11.5832L33.4 7.96142C33.5521 7.79294 33.6362 7.57405 33.6362 7.34709C33.6362 7.12013 33.5521 6.90124 33.4 6.73275L29.9524 3.2668C29.8742 3.18485 29.7806 3.11912 29.6769 3.07338C29.5733 3.02763 29.4616 3.00277 29.3483 3.00022C29.2351 2.99766 29.1224 3.01746 29.0168 3.05849C28.9112 3.09951 28.8147 3.16095 28.7329 3.2393Z" stroke="#97979B" stroke-width="2" stroke-miterlimit="10"/>
<path d="M9.00441 37H7.87341C7.74774 37 7.63941 36.9675 7.54841 36.9025C7.46174 36.8332 7.37941 36.7335 7.30141 36.6035L4.83791 33.191C4.72524 33.022 4.60391 32.905 4.47391 32.84C4.34391 32.7707 4.16624 32.736 3.94091 32.736H2.82291V37H1.56841V27.6855H2.82291V31.7675H3.79141C3.98641 31.7675 4.15107 31.7372 4.28541 31.6765C4.42407 31.6158 4.56057 31.4967 4.69491 31.319L7.13241 28.043C7.19741 27.939 7.27541 27.8545 7.36641 27.7895C7.46174 27.7202 7.57224 27.6855 7.69791 27.6855H8.75741L5.94291 31.514C5.73057 31.813 5.45757 32.0188 5.12391 32.1315C5.35357 32.1922 5.54641 32.2897 5.70241 32.424C5.86274 32.554 6.01441 32.736 6.15741 32.97L9.00441 37ZM13.484 34.036C12.951 34.0533 12.496 34.0967 12.119 34.166C11.7464 34.231 11.4409 34.3177 11.2025 34.426C10.9685 34.5343 10.7974 34.6622 10.689 34.8095C10.585 34.9568 10.533 35.1215 10.533 35.3035C10.533 35.4768 10.5612 35.6263 10.6175 35.752C10.6739 35.8777 10.7497 35.9817 10.845 36.064C10.9447 36.142 11.0595 36.2005 11.1895 36.2395C11.3239 36.2742 11.4669 36.2915 11.6185 36.2915C11.8222 36.2915 12.0085 36.272 12.1775 36.233C12.3465 36.1897 12.5047 36.129 12.652 36.051C12.8037 35.973 12.9467 35.8798 13.081 35.7715C13.2197 35.6632 13.354 35.5397 13.484 35.401V34.036ZM9.74652 31.345C10.1105 30.994 10.5027 30.7318 10.923 30.5585C11.3434 30.3852 11.8092 30.2985 12.3205 30.2985C12.6889 30.2985 13.016 30.3592 13.302 30.4805C13.588 30.6018 13.8285 30.7708 14.0235 30.9875C14.2185 31.2042 14.3659 31.4663 14.4655 31.774C14.5652 32.0817 14.615 32.4197 14.615 32.788V37H14.1015C13.9889 37 13.9022 36.9827 13.8415 36.948C13.7809 36.909 13.7332 36.8353 13.6985 36.727L13.5685 36.103C13.3952 36.2633 13.2262 36.4063 13.0615 36.532C12.8969 36.6533 12.7235 36.7573 12.5415 36.844C12.3595 36.9263 12.1645 36.9892 11.9565 37.0325C11.7529 37.0802 11.5254 37.104 11.274 37.104C11.0184 37.104 10.7779 37.0693 10.5525 37C10.3272 36.9263 10.13 36.818 9.96102 36.675C9.79636 36.532 9.66419 36.3522 9.56452 36.1355C9.46919 35.9145 9.42152 35.6545 9.42152 35.3555C9.42152 35.0955 9.49302 34.8463 9.63602 34.608C9.77902 34.3653 10.0109 34.1508 10.3315 33.9645C10.6522 33.7782 11.0704 33.6265 11.586 33.5095C12.1017 33.3882 12.7344 33.3188 13.484 33.3015V32.788C13.484 32.2767 13.3735 31.891 13.1525 31.631C12.9315 31.3667 12.6087 31.2345 12.184 31.2345C11.898 31.2345 11.6575 31.2713 11.4625 31.345C11.2719 31.4143 11.105 31.4945 10.962 31.5855C10.8234 31.6722 10.702 31.7523 10.598 31.826C10.4984 31.8953 10.3987 31.93 10.299 31.93C10.221 31.93 10.1539 31.9105 10.0975 31.8715C10.0412 31.8282 9.99352 31.7762 9.95452 31.7155L9.74652 31.345ZM21.6854 31.2995H19.1569V37H17.9999V31.2995H15.4714V30.4155H21.6854V31.2995ZM26.2936 34.036C25.7606 34.0533 25.3056 34.0967 24.9286 34.166C24.5559 34.231 24.2504 34.3177 24.0121 34.426C23.7781 34.5343 23.6069 34.6622 23.4986 34.8095C23.3946 34.9568 23.3426 35.1215 23.3426 35.3035C23.3426 35.4768 23.3708 35.6263 23.4271 35.752C23.4834 35.8777 23.5593 35.9817 23.6546 36.064C23.7543 36.142 23.8691 36.2005 23.9991 36.2395C24.1334 36.2742 24.2764 36.2915 24.4281 36.2915C24.6318 36.2915 24.8181 36.272 24.9871 36.233C25.1561 36.1897 25.3143 36.129 25.4616 36.051C25.6133 35.973 25.7563 35.8798 25.8906 35.7715C26.0293 35.6632 26.1636 35.5397 26.2936 35.401V34.036ZM22.5561 31.345C22.9201 30.994 23.3123 30.7318 23.7326 30.5585C24.1529 30.3852 24.6188 30.2985 25.1301 30.2985C25.4984 30.2985 25.8256 30.3592 26.1116 30.4805C26.3976 30.6018 26.6381 30.7708 26.8331 30.9875C27.0281 31.2042 27.1754 31.4663 27.2751 31.774C27.3748 32.0817 27.4246 32.4197 27.4246 32.788V37H26.9111C26.7984 37 26.7118 36.9827 26.6511 36.948C26.5904 36.909 26.5428 36.8353 26.5081 36.727L26.3781 36.103C26.2048 36.2633 26.0358 36.4063 25.8711 36.532C25.7064 36.6533 25.5331 36.7573 25.3511 36.844C25.1691 36.9263 24.9741 36.9892 24.7661 37.0325C24.5624 37.0802 24.3349 37.104 24.0836 37.104C23.8279 37.104 23.5874 37.0693 23.3621 37C23.1368 36.9263 22.9396 36.818 22.7706 36.675C22.6059 36.532 22.4738 36.3522 22.3741 36.1355C22.2788 35.9145 22.2311 35.6545 22.2311 35.3555C22.2311 35.0955 22.3026 34.8463 22.4456 34.608C22.5886 34.3653 22.8204 34.1508 23.1411 33.9645C23.4618 33.7782 23.8799 33.6265 24.3956 33.5095C24.9113 33.3882 25.5439 33.3188 26.2936 33.3015V32.788C26.2936 32.2767 26.1831 31.891 25.9621 31.631C25.7411 31.3667 25.4183 31.2345 24.9936 31.2345C24.7076 31.2345 24.4671 31.2713 24.2721 31.345C24.0814 31.4143 23.9146 31.4945 23.7716 31.5855C23.6329 31.6722 23.5116 31.7523 23.4076 31.826C23.3079 31.8953 23.2083 31.93 23.1086 31.93C23.0306 31.93 22.9634 31.9105 22.9071 31.8715C22.8508 31.8282 22.8031 31.7762 22.7641 31.7155L22.5561 31.345ZM34.959 37H33.802V31.3255H31.722C31.67 32.1618 31.592 32.8855 31.488 33.4965C31.384 34.1032 31.2583 34.621 31.111 35.05C30.968 35.4747 30.8055 35.8213 30.6235 36.09C30.4458 36.3543 30.2573 36.5602 30.058 36.7075C29.863 36.8548 29.6593 36.9545 29.447 37.0065C29.239 37.0585 29.031 37.0845 28.823 37.0845C28.4547 37.0845 28.2705 37.026 28.2705 36.909V36.1745H28.6085C28.7558 36.1745 28.9053 36.1485 29.057 36.0965C29.2087 36.0445 29.356 35.9448 29.499 35.7975C29.6463 35.6502 29.7872 35.4443 29.9215 35.18C30.0558 34.9113 30.1772 34.5647 30.2855 34.14C30.3982 33.711 30.4935 33.1932 30.5715 32.5865C30.6538 31.9755 30.7167 31.2518 30.76 30.4155H34.959V37ZM39.567 30.3115C40.048 30.3115 40.4813 30.3917 40.867 30.552C41.2527 30.7123 41.582 30.9398 41.855 31.2345C42.128 31.5292 42.336 31.8867 42.479 32.307C42.6263 32.723 42.7 33.1888 42.7 33.7045C42.7 34.2245 42.6263 34.6925 42.479 35.1085C42.336 35.5245 42.128 35.8798 41.855 36.1745C41.582 36.4692 41.2527 36.6967 40.867 36.857C40.4813 37.013 40.048 37.091 39.567 37.091C39.0817 37.091 38.644 37.013 38.254 36.857C37.8683 36.6967 37.539 36.4692 37.266 36.1745C36.993 35.8798 36.7828 35.5245 36.6355 35.1085C36.4925 34.6925 36.421 34.2245 36.421 33.7045C36.421 33.1888 36.4925 32.723 36.6355 32.307C36.7828 31.8867 36.993 31.5292 37.266 31.2345C37.539 30.9398 37.8683 30.7123 38.254 30.552C38.644 30.3917 39.0817 30.3115 39.567 30.3115ZM39.567 36.1875C40.217 36.1875 40.7023 35.9708 41.023 35.5375C41.3437 35.0998 41.504 34.491 41.504 33.711C41.504 32.9267 41.3437 32.3157 41.023 31.878C40.7023 31.4403 40.217 31.2215 39.567 31.2215C39.2377 31.2215 38.9495 31.2778 38.7025 31.3905C38.4598 31.5032 38.2562 31.6657 38.0915 31.878C37.9312 32.0903 37.8098 32.3525 37.7275 32.6645C37.6495 32.9722 37.6105 33.321 37.6105 33.711C37.6105 34.491 37.7708 35.0998 38.0915 35.5375C38.4165 35.9708 38.9083 36.1875 39.567 36.1875ZM48.438 31.2995H45.331V37H44.1675V30.4155H48.438V31.2995Z" fill="#97979B"/>
</svg>
