<svg width="46" height="42" viewBox="0 0 46 42" fill="none" xmlns="http://www.w3.org/2000/svg">
<path d="M33.7 11.4L23.4 1.2C23.3 1.1 23.2 1 23 1C22.8 1 22.7 1.1 22.5 1.2L12.3 11.4C11.9 11.8 11.9 12.4 12.3 12.8C12.7 13.2 13.3 13.2 13.7 12.8L14 12.5V21.1C14 21.7 14.5 22.2 15.1 22.2H19H27H30.9C31.5 22.2 32 21.7 32 21.1V12.5L32.3 12.8C32.5 13 32.8 13.1 33 13.1C33.2 13.1 33.5 13 33.7 12.8C34.1 12.4 34.1 11.8 33.7 11.4ZM21 20.2V14.2H25V20.2H21ZM30 20.2H27V13.3C27 12.7 26.5 12.2 25.9 12.2H20.1C19.5 12.2 19 12.7 19 13.3V20.2H16V10.5L23 3.5L30 10.5V20.2Z" fill="#FFC108"/>
<path d="M7.20769 28.68H2.85919V37H1.59819V27.6855H7.20769V28.68ZM11.5659 37H10.4089V31.3255H8.32894C8.27694 32.1618 8.19894 32.8855 8.09494 33.4965C7.99094 34.1032 7.86527 34.621 7.71794 35.05C7.57494 35.4747 7.41244 35.8213 7.23044 36.09C7.05277 36.3543 6.86427 36.5602 6.66494 36.7075C6.46994 36.8548 6.26627 36.9545 6.05394 37.0065C5.84594 37.0585 5.63794 37.0845 5.42994 37.0845C5.06161 37.0845 4.87744 37.026 4.87744 36.909V36.1745H5.21544C5.36277 36.1745 5.51227 36.1485 5.66394 36.0965C5.81561 36.0445 5.96294 35.9448 6.10594 35.7975C6.25327 35.6502 6.39411 35.4443 6.52844 35.18C6.66277 34.9113 6.78411 34.5647 6.89244 34.14C7.00511 33.711 7.10044 33.1932 7.17844 32.5865C7.26077 31.9755 7.32361 31.2518 7.36694 30.4155H11.5659V37ZM16.9669 34.036C16.4339 34.0533 15.9789 34.0967 15.6019 34.166C15.2293 34.231 14.9238 34.3177 14.6854 34.426C14.4514 34.5343 14.2803 34.6622 14.1719 34.8095C14.0679 34.9568 14.0159 35.1215 14.0159 35.3035C14.0159 35.4768 14.0441 35.6263 14.1004 35.752C14.1568 35.8777 14.2326 35.9817 14.3279 36.064C14.4276 36.142 14.5424 36.2005 14.6724 36.2395C14.8068 36.2742 14.9498 36.2915 15.1014 36.2915C15.3051 36.2915 15.4914 36.272 15.6604 36.233C15.8294 36.1897 15.9876 36.129 16.1349 36.051C16.2866 35.973 16.4296 35.8798 16.5639 35.7715C16.7026 35.6632 16.8369 35.5397 16.9669 35.401V34.036ZM13.2294 31.345C13.5934 30.994 13.9856 30.7318 14.4059 30.5585C14.8263 30.3852 15.2921 30.2985 15.8034 30.2985C16.1718 30.2985 16.4989 30.3592 16.7849 30.4805C17.0709 30.6018 17.3114 30.7708 17.5064 30.9875C17.7014 31.2042 17.8488 31.4663 17.9484 31.774C18.0481 32.0817 18.0979 32.4197 18.0979 32.788V37H17.5844C17.4718 37 17.3851 36.9827 17.3244 36.948C17.2638 36.909 17.2161 36.8353 17.1814 36.727L17.0514 36.103C16.8781 36.2633 16.7091 36.4063 16.5444 36.532C16.3798 36.6533 16.2064 36.7573 16.0244 36.844C15.8424 36.9263 15.6474 36.9892 15.4394 37.0325C15.2358 37.0802 15.0083 37.104 14.7569 37.104C14.5013 37.104 14.2608 37.0693 14.0354 37C13.8101 36.9263 13.6129 36.818 13.4439 36.675C13.2793 36.532 13.1471 36.3522 13.0474 36.1355C12.9521 35.9145 12.9044 35.6545 12.9044 35.3555C12.9044 35.0955 12.9759 34.8463 13.1189 34.608C13.2619 34.3653 13.4938 34.1508 13.8144 33.9645C14.1351 33.7782 14.5533 33.6265 15.0689 33.5095C15.5846 33.3882 16.2173 33.3188 16.9669 33.3015V32.788C16.9669 32.2767 16.8564 31.891 16.6354 31.631C16.4144 31.3667 16.0916 31.2345 15.6669 31.2345C15.3809 31.2345 15.1404 31.2713 14.9454 31.345C14.7548 31.4143 14.5879 31.4945 14.4449 31.5855C14.3063 31.6722 14.1849 31.7523 14.0809 31.826C13.9813 31.8953 13.8816 31.93 13.7819 31.93C13.7039 31.93 13.6368 31.9105 13.5804 31.8715C13.5241 31.8282 13.4764 31.7762 13.4374 31.7155L13.2294 31.345ZM22.3888 36.1875C22.8222 36.1875 23.1645 36.0878 23.4158 35.8885C23.6672 35.6848 23.7928 35.4075 23.7928 35.0565C23.7928 34.9005 23.769 34.7597 23.7213 34.634C23.6737 34.504 23.5957 34.3913 23.4873 34.296C23.379 34.2007 23.2338 34.127 23.0518 34.075C22.8742 34.023 22.6553 33.997 22.3953 33.997H20.9718V36.1875H22.3888ZM20.9718 31.1955V33.2625H22.2393C22.43 33.2625 22.6055 33.2365 22.7658 33.1845C22.9305 33.1282 23.0713 33.0523 23.1883 32.957C23.3053 32.8573 23.3963 32.7403 23.4613 32.606C23.5263 32.4673 23.5588 32.3157 23.5588 32.151C23.5588 32.0297 23.5372 31.9127 23.4938 31.8C23.4505 31.683 23.3768 31.5812 23.2728 31.4945C23.1688 31.4035 23.0323 31.332 22.8633 31.28C22.6943 31.2237 22.4863 31.1955 22.2393 31.1955H20.9718ZM22.2718 30.4155C22.6792 30.4155 23.028 30.4567 23.3183 30.539C23.6087 30.6213 23.847 30.734 24.0333 30.877C24.2197 31.0157 24.3562 31.1803 24.4428 31.371C24.5295 31.5617 24.5728 31.7653 24.5728 31.982C24.5728 32.125 24.5533 32.2745 24.5143 32.4305C24.4753 32.5865 24.406 32.736 24.3063 32.879C24.211 33.022 24.0788 33.152 23.9098 33.269C23.7452 33.3817 23.5372 33.4705 23.2858 33.5355C23.7885 33.6222 24.1763 33.7977 24.4493 34.062C24.7223 34.322 24.8588 34.6665 24.8588 35.0955C24.8588 35.4162 24.7938 35.6957 24.6638 35.934C24.5382 36.168 24.3627 36.3652 24.1373 36.5255C23.9163 36.6858 23.6563 36.805 23.3573 36.883C23.0583 36.961 22.7377 37 22.3953 37H19.8603V30.4155H22.2718ZM31.7956 30.4155V37H30.6321V33.919H27.4731V37H26.3096V30.4155H27.4731V33.0415H30.6321V30.4155H31.7956ZM37.2033 34.036C36.6703 34.0533 36.2153 34.0967 35.8383 34.166C35.4656 34.231 35.1601 34.3177 34.9218 34.426C34.6878 34.5343 34.5166 34.6622 34.4083 34.8095C34.3043 34.9568 34.2523 35.1215 34.2523 35.3035C34.2523 35.4768 34.2804 35.6263 34.3368 35.752C34.3931 35.8777 34.4689 35.9817 34.5643 36.064C34.6639 36.142 34.7788 36.2005 34.9088 36.2395C35.0431 36.2742 35.1861 36.2915 35.3378 36.2915C35.5414 36.2915 35.7278 36.272 35.8968 36.233C36.0658 36.1897 36.2239 36.129 36.3713 36.051C36.5229 35.973 36.6659 35.8798 36.8003 35.7715C36.9389 35.6632 37.0733 35.5397 37.2033 35.401V34.036ZM33.4658 31.345C33.8298 30.994 34.2219 30.7318 34.6423 30.5585C35.0626 30.3852 35.5284 30.2985 36.0398 30.2985C36.4081 30.2985 36.7353 30.3592 37.0213 30.4805C37.3073 30.6018 37.5478 30.7708 37.7428 30.9875C37.9378 31.2042 38.0851 31.4663 38.1848 31.774C38.2844 32.0817 38.3343 32.4197 38.3343 32.788V37H37.8208C37.7081 37 37.6214 36.9827 37.5608 36.948C37.5001 36.909 37.4524 36.8353 37.4178 36.727L37.2878 36.103C37.1144 36.2633 36.9454 36.4063 36.7808 36.532C36.6161 36.6533 36.4428 36.7573 36.2608 36.844C36.0788 36.9263 35.8838 36.9892 35.6758 37.0325C35.4721 37.0802 35.2446 37.104 34.9933 37.104C34.7376 37.104 34.4971 37.0693 34.2718 37C34.0464 36.9263 33.8493 36.818 33.6803 36.675C33.5156 36.532 33.3834 36.3522 33.2838 36.1355C33.1884 35.9145 33.1408 35.6545 33.1408 35.3555C33.1408 35.0955 33.2123 34.8463 33.3553 34.608C33.4983 34.3653 33.7301 34.1508 34.0508 33.9645C34.3714 33.7782 34.7896 33.6265 35.3053 33.5095C35.8209 33.3882 36.4536 33.3188 37.2033 33.3015V32.788C37.2033 32.2767 37.0928 31.891 36.8718 31.631C36.6508 31.3667 36.3279 31.2345 35.9033 31.2345C35.6173 31.2345 35.3768 31.2713 35.1818 31.345C34.9911 31.4143 34.8243 31.4945 34.6813 31.5855C34.5426 31.6722 34.4213 31.7523 34.3173 31.826C34.2176 31.8953 34.1179 31.93 34.0183 31.93C33.9403 31.93 33.8731 31.9105 33.8168 31.8715C33.7604 31.8282 33.7128 31.7762 33.6738 31.7155L33.4658 31.345ZM43.5612 33.49V31.1955H42.4562C42.2092 31.1955 42.0012 31.2323 41.8322 31.306C41.6632 31.3753 41.5267 31.4663 41.4227 31.579C41.323 31.6873 41.2515 31.8108 41.2082 31.9495C41.1648 32.0838 41.1432 32.2182 41.1432 32.3525C41.1432 32.7078 41.2732 32.9873 41.5332 33.191C41.7932 33.3903 42.1485 33.49 42.5992 33.49H43.5612ZM44.6662 30.4155V37H43.5612V34.2245H43.0542C42.9328 34.2245 42.831 34.2353 42.7487 34.257C42.6707 34.2743 42.6013 34.3003 42.5407 34.335C42.4843 34.3697 42.4345 34.4152 42.3912 34.4715C42.3478 34.5235 42.3023 34.5842 42.2547 34.6535L40.8117 36.597C40.738 36.7357 40.647 36.8375 40.5387 36.9025C40.4347 36.9675 40.2808 37 40.0772 37H39.2712L41.1822 34.517C41.3382 34.257 41.544 34.0837 41.7997 33.997C41.466 33.9537 41.1843 33.8757 40.9547 33.763C40.725 33.6503 40.5365 33.5182 40.3892 33.3665C40.2462 33.2105 40.1422 33.0393 40.0772 32.853C40.0122 32.6667 39.9797 32.4782 39.9797 32.2875C39.9797 32.0622 40.023 31.8368 40.1097 31.6115C40.2007 31.3862 40.3437 31.1868 40.5387 31.0135C40.7337 30.8358 40.985 30.6928 41.2927 30.5845C41.6047 30.4718 41.9817 30.4155 42.4237 30.4155H44.6662Z" fill="#FFC108"/>
</svg>
