<svg width="132" height="24" viewBox="0 0 132 24" fill="none" xmlns="http://www.w3.org/2000/svg">
<path d="M1.09082 18L11.4872 24V0L1.09082 6V18Z" fill="#FFDA6B"/>
<path d="M21.8837 18L11.4873 24V0L21.8837 6V18Z" fill="#EB9500"/>
<path d="M11.4872 3.77455L18.6108 7.88727V16.1127L11.4872 20.2255L4.36355 16.1127V7.88727L11.4872 3.77455ZM11.4872 0L1.09082 6V18L11.4872 24L21.8835 18V6L11.4872 0Z" fill="#FFC108"/>
<path d="M40.0294 16.5925C40.1466 16.5925 40.2493 16.6398 40.3372 16.7345L41.1839 17.641C40.5388 18.3836 39.7545 18.9625 38.8308 19.3775C37.9145 19.7925 36.8039 20 35.4991 20C34.3702 20 33.3439 19.8071 32.4203 19.4212C31.4967 19.028 30.7086 18.4819 30.0562 17.7829C29.4038 17.0767 28.898 16.2321 28.5388 15.2491C28.1796 14.2662 28 13.185 28 12.0055C28 10.8259 28.1869 9.74471 28.5608 8.76178C28.9346 7.77884 29.4588 6.93424 30.1332 6.22799C30.8149 5.52173 31.6286 4.97565 32.5742 4.58976C33.5199 4.19659 34.5645 4 35.708 4C36.8296 4 37.8192 4.17838 38.6769 4.53515C39.5346 4.89192 40.2896 5.37611 40.942 5.98771L40.2383 6.95973C40.1943 7.03254 40.1357 7.09443 40.0623 7.14539C39.9964 7.18908 39.9047 7.21092 39.7875 7.21092C39.6555 7.21092 39.4942 7.14175 39.3036 7.00341C39.113 6.85779 38.8638 6.69761 38.5559 6.52287C38.248 6.34812 37.8632 6.19158 37.4014 6.05324C36.9396 5.90762 36.3714 5.83481 35.697 5.83481C34.8833 5.83481 34.1393 5.97679 33.4649 6.26075C32.7905 6.53743 32.2077 6.94152 31.7166 7.47304C31.2328 8.00455 30.8552 8.65256 30.584 9.41706C30.3128 10.1816 30.1772 11.0444 30.1772 12.0055C30.1772 12.9811 30.3164 13.8512 30.595 14.6157C30.8809 15.3802 31.2657 16.0282 31.7496 16.5597C32.2407 17.084 32.8161 17.4844 33.4759 17.7611C34.143 18.0378 34.8614 18.1761 35.6311 18.1761C36.1002 18.1761 36.5217 18.1506 36.8956 18.0997C37.2768 18.0414 37.625 17.954 37.9402 17.8375C38.2627 17.721 38.5596 17.5754 38.8308 17.4007C39.1094 17.2187 39.3843 17.0039 39.6555 16.7563C39.7801 16.6471 39.9047 16.5925 40.0294 16.5925Z" fill="#26262E"/>
<path d="M49.8934 9.30785C49.996 9.14767 50.1317 9.01661 50.3003 8.91468C50.4689 8.81274 50.6485 8.76178 50.839 8.76178H52.3675L49.4756 12.9775C49.2996 13.2469 49.1164 13.4689 48.9258 13.6437C48.7352 13.8111 48.5006 13.9422 48.2221 14.0369C48.5739 14.1315 48.8708 14.2808 49.1127 14.4846C49.3546 14.6812 49.5709 14.9361 49.7615 15.2491L52.6863 19.8253H51.3229C50.971 19.8253 50.6998 19.767 50.5092 19.6505C50.3186 19.534 50.1536 19.3666 50.0144 19.1481L47.8482 15.7078C47.5037 15.1399 46.9869 14.856 46.2978 14.856H45.0993V19.8362H43.131V8.76178H45.0993V13.5454H46.1549C46.7413 13.5454 47.1995 13.2978 47.5293 12.8027L49.8934 9.30785Z" fill="#26262E"/>
<path d="M60.55 14.845C59.6484 14.8742 58.8787 14.947 58.2409 15.0635C57.6105 15.1727 57.0937 15.3183 56.6905 15.5003C56.2947 15.6824 56.0051 15.8972 55.8218 16.1447C55.6459 16.3923 55.5579 16.6689 55.5579 16.9747C55.5579 17.266 55.6056 17.5172 55.7009 17.7283C55.7962 17.9395 55.9245 18.1142 56.0857 18.2526C56.2543 18.3836 56.4486 18.4819 56.6685 18.5474C56.8958 18.6057 57.1377 18.6348 57.3942 18.6348C57.7388 18.6348 58.054 18.602 58.3399 18.5365C58.6258 18.4637 58.8933 18.3618 59.1426 18.2307C59.3991 18.0997 59.641 17.9431 59.8683 17.7611C60.1029 17.5791 60.3301 17.3716 60.55 17.1386V14.845ZM54.2275 10.3235C54.8432 9.73379 55.5066 9.29329 56.2177 9.00205C56.9288 8.71081 57.7168 8.56519 58.5818 8.56519C59.2049 8.56519 59.7583 8.66712 60.2421 8.87099C60.726 9.07486 61.1328 9.35882 61.4627 9.72287C61.7925 10.0869 62.0418 10.5274 62.2104 11.0444C62.379 11.5613 62.4633 12.1292 62.4633 12.7481V19.8253H61.5946C61.404 19.8253 61.2574 19.7961 61.1548 19.7379C61.0522 19.6724 60.9715 19.5486 60.9129 19.3666L60.693 18.3181C60.3997 18.5875 60.1139 18.8278 59.8353 19.0389C59.5567 19.2428 59.2635 19.4175 58.9556 19.5631C58.6478 19.7015 58.3179 19.8071 57.966 19.8799C57.6215 19.96 57.2366 20 56.8115 20C56.379 20 55.9721 19.9418 55.5909 19.8253C55.2097 19.7015 54.8762 19.5195 54.5903 19.2792C54.3118 19.0389 54.0882 18.7367 53.9196 18.3727C53.7583 18.0014 53.6777 17.5645 53.6777 17.0621C53.6777 16.6253 53.7986 16.2066 54.0405 15.8061C54.2824 15.3984 54.6746 15.038 55.2171 14.7249C55.7595 14.4118 56.4669 14.157 57.3393 13.9604C58.2116 13.7565 59.2818 13.64 60.55 13.6109V12.7481C60.55 11.889 60.3631 11.241 59.9892 10.8041C59.6154 10.36 59.0693 10.1379 58.3509 10.1379C57.8671 10.1379 57.4602 10.1998 57.1303 10.3235C56.8078 10.44 56.5256 10.5747 56.2837 10.7276C56.0491 10.8733 55.8438 11.008 55.6679 11.1317C55.4993 11.2482 55.3307 11.3065 55.1621 11.3065C55.0302 11.3065 54.9165 11.2737 54.8212 11.2082C54.7259 11.1354 54.6453 11.048 54.5793 10.9461L54.2275 10.3235Z" fill="#26262E"/>
<path d="M75 8.76178V19.8253H73.0427V12.3113C73.0427 12.1656 73.0501 12.0091 73.0647 11.8416C73.0794 11.6742 73.0977 11.5067 73.1197 11.3393C73.0537 11.4849 72.9878 11.6196 72.9218 11.7433C72.8558 11.8671 72.7862 11.98 72.7129 12.0819L67.3359 19.3447C67.2553 19.4612 67.1527 19.5741 67.0281 19.6833C66.9108 19.7852 66.7788 19.8362 66.6322 19.8362H65.4447V8.7727H67.4129V16.2867C67.4129 16.425 67.4056 16.5779 67.3909 16.7454C67.3763 16.9056 67.3579 17.0694 67.3359 17.2369C67.4019 17.0985 67.4679 16.9711 67.5339 16.8546C67.5998 16.7308 67.6658 16.618 67.7318 16.516L73.1087 9.25324C73.1894 9.13675 73.292 9.02753 73.4166 8.9256C73.5412 8.81638 73.6768 8.76178 73.8234 8.76178H75ZM70.3488 6.08601C70.6493 6.08601 70.9022 6.05324 71.1075 5.98771C71.3128 5.9149 71.4777 5.80205 71.6023 5.64915C71.7343 5.49625 71.8296 5.29966 71.8882 5.05939C71.9468 4.81911 71.9762 4.52423 71.9762 4.17474H73.1197C73.259 4.17474 73.3653 4.23663 73.4386 4.36041C73.5119 4.48419 73.5486 4.61889 73.5486 4.76451C73.5486 5.12856 73.4752 5.4562 73.3286 5.74744C73.182 6.03868 72.9694 6.28988 72.6909 6.50102C72.4197 6.70489 72.0861 6.86143 71.6903 6.97065C71.2944 7.07986 70.8473 7.13447 70.3488 7.13447C69.8503 7.13447 69.4032 7.07986 69.0073 6.97065C68.6115 6.86143 68.2743 6.70489 67.9957 6.50102C67.7245 6.28988 67.5155 6.03868 67.3689 5.74744C67.2223 5.4562 67.149 5.12856 67.149 4.76451C67.149 4.61889 67.1857 4.48419 67.259 4.36041C67.3323 4.23663 67.4386 4.17474 67.5779 4.17474H68.7214C68.7214 4.52423 68.7507 4.81911 68.8094 5.05939C68.868 5.29966 68.9597 5.49625 69.0843 5.64915C69.2162 5.80205 69.3848 5.9149 69.5901 5.98771C69.7953 6.05324 70.0482 6.08601 70.3488 6.08601Z" fill="#26262E"/>
<path d="M95.627 4V19.8262H92.4201V10.7237C92.4201 10.5137 92.4237 10.2856 92.4309 10.0394C92.4452 9.79317 92.4668 9.54333 92.4955 9.28988L88.3308 17.4257C88.2017 17.6791 88.0259 17.871 87.8035 18.0014C87.5883 18.1317 87.3408 18.1969 87.061 18.1969H86.566C86.2862 18.1969 86.0351 18.1317 85.8127 18.0014C85.5975 17.871 85.4253 17.6791 85.2962 17.4257L81.1315 9.26816C81.1531 9.52885 81.171 9.78592 81.1853 10.0394C81.1997 10.2856 81.2069 10.5137 81.2069 10.7237V19.8262H78V4H80.7764C80.9342 4 81.0706 4.00362 81.1853 4.01086C81.3073 4.0181 81.4149 4.03983 81.5082 4.07603C81.6014 4.11224 81.6839 4.17017 81.7557 4.24983C81.8346 4.32224 81.9099 4.42725 81.9817 4.56483L86.0172 12.592C86.1606 12.8672 86.297 13.1532 86.4261 13.4501C86.5624 13.747 86.6915 14.0511 86.8135 14.3625C86.9355 14.0439 87.061 13.7325 87.1901 13.4284C87.3265 13.1242 87.4699 12.8346 87.6206 12.5594L91.6453 4.56483C91.7171 4.42725 91.7888 4.32224 91.8605 4.24983C91.9395 4.17017 92.0256 4.11224 92.1188 4.07603C92.2121 4.03983 92.3161 4.0181 92.4309 4.01086C92.5529 4.00362 92.6928 4 92.8506 4H95.627Z" fill="#FFC108"/>
<path d="M103.8 15.2424C103.132 15.2713 102.584 15.3293 102.153 15.4162C101.723 15.5031 101.382 15.6117 101.131 15.742C100.88 15.8724 100.704 16.0208 100.603 16.1874C100.51 16.3539 100.464 16.535 100.464 16.7305C100.464 17.1143 100.568 17.3858 100.776 17.5451C100.984 17.6972 101.289 17.7733 101.69 17.7733C102.121 17.7733 102.497 17.6972 102.82 17.5451C103.143 17.3931 103.47 17.1469 103.8 16.8065V15.2424ZM97.7947 10.1263C98.4691 9.52523 99.2152 9.07988 100.033 8.79022C100.858 8.49332 101.741 8.34487 102.68 8.34487C103.355 8.34487 103.961 8.45712 104.499 8.6816C105.044 8.89885 105.503 9.20661 105.876 9.60489C106.257 9.99593 106.547 10.463 106.748 11.0061C106.949 11.5492 107.049 12.143 107.049 12.7875V19.8262H105.521C105.206 19.8262 104.965 19.7828 104.8 19.6959C104.642 19.609 104.51 19.4279 104.402 19.1527L104.165 18.5336C103.886 18.7726 103.617 18.9826 103.358 19.1636C103.1 19.3446 102.831 19.5003 102.551 19.6307C102.279 19.7538 101.984 19.8443 101.669 19.9022C101.36 19.9674 101.016 20 100.636 20C100.126 20 99.6636 19.9348 99.2475 19.8045C98.8314 19.6669 98.4763 19.4678 98.1821 19.2071C97.8952 18.9464 97.6728 18.6241 97.5149 18.2403C97.3571 17.8493 97.2782 17.4003 97.2782 16.8934C97.2782 16.4879 97.3786 16.0788 97.5795 15.666C97.7804 15.246 98.1283 14.8658 98.6233 14.5255C99.1184 14.1779 99.7856 13.8882 100.625 13.6565C101.464 13.4248 102.523 13.2944 103.8 13.2654V12.7875C103.8 12.1285 103.663 11.6542 103.391 11.3646C103.125 11.0677 102.745 10.9192 102.25 10.9192C101.855 10.9192 101.532 10.9627 101.281 11.0496C101.03 11.1365 100.804 11.2342 100.603 11.3428C100.41 11.4515 100.22 11.5492 100.033 11.6361C99.8465 11.723 99.6241 11.7665 99.3659 11.7665C99.1363 11.7665 98.9426 11.7085 98.7848 11.5927C98.6269 11.4768 98.4978 11.3392 98.3974 11.1799L97.7947 10.1263Z" fill="#FFC108"/>
<path d="M119.297 8.56212V19.8262H115.961V15.0686H112.518V19.8262H109.182V8.56212H112.518V12.6572H115.961V8.56212H119.297Z" fill="#FFC108"/>
<path d="M132 8.56212V19.8262H128.664V14.091C128.664 13.9027 128.675 13.6999 128.696 13.4827C128.718 13.2582 128.747 13.0301 128.782 12.7984C128.61 13.1894 128.427 13.5189 128.234 13.7868C128.219 13.8013 128.158 13.8882 128.051 14.0475C127.95 14.2068 127.817 14.4132 127.652 14.6667C127.495 14.9129 127.312 15.1917 127.104 15.5031C126.903 15.8144 126.695 16.1331 126.479 16.4589C125.977 17.2193 125.414 18.0774 124.79 19.0333C124.725 19.1274 124.65 19.2252 124.564 19.3265C124.485 19.4207 124.395 19.5076 124.295 19.5872C124.194 19.6597 124.087 19.7212 123.972 19.7719C123.857 19.8153 123.735 19.8371 123.606 19.8371H121.562V8.57298H124.898V14.3082C124.898 14.4893 124.887 14.692 124.865 14.9165C124.844 15.141 124.815 15.3691 124.779 15.6008C124.951 15.2098 125.134 14.8803 125.328 14.6124C125.335 14.5979 125.393 14.511 125.5 14.3517C125.608 14.1924 125.741 13.9896 125.898 13.7434C126.063 13.4899 126.246 13.2075 126.447 12.8961C126.655 12.5847 126.867 12.2661 127.082 11.9403C127.584 11.1799 128.147 10.3218 128.772 9.36592C128.836 9.27178 128.908 9.17764 128.987 9.0835C129.073 8.98212 129.166 8.89523 129.267 8.82281C129.367 8.74315 129.475 8.6816 129.589 8.63815C129.704 8.58746 129.826 8.56212 129.955 8.56212H132Z" fill="#FFC108"/>
</svg>
