<svg width="26" height="42" viewBox="0 0 26 42" fill="none" xmlns="http://www.w3.org/2000/svg">
<path d="M14.5 12C14.5 12.2967 14.412 12.5867 14.2472 12.8334C14.0824 13.08 13.8481 13.2723 13.574 13.3858C13.2999 13.4994 12.9983 13.5291 12.7074 13.4712C12.4164 13.4133 12.1491 13.2704 11.9393 13.0607C11.7296 12.8509 11.5867 12.5836 11.5288 12.2926C11.4709 12.0017 11.5006 11.7001 11.6142 11.426C11.7277 11.1519 11.92 10.9176 12.1666 10.7528C12.4133 10.588 12.7033 10.5 13 10.5C13.3978 10.5 13.7794 10.658 14.0607 10.9393C14.342 11.2206 14.5 11.6022 14.5 12ZM7 10.5C6.70333 10.5 6.41332 10.588 6.16665 10.7528C5.91997 10.9176 5.72771 11.1519 5.61418 11.426C5.50065 11.7001 5.47094 12.0017 5.52882 12.2926C5.5867 12.5836 5.72956 12.8509 5.93934 13.0607C6.14912 13.2704 6.41639 13.4133 6.70737 13.4712C6.99834 13.5291 7.29994 13.4994 7.57403 13.3858C7.84811 13.2723 8.08238 13.08 8.24721 12.8334C8.41203 12.5867 8.5 12.2967 8.5 12C8.5 11.6022 8.34197 11.2206 8.06066 10.9393C7.77936 10.658 7.39783 10.5 7 10.5ZM19 10.5C18.7033 10.5 18.4133 10.588 18.1666 10.7528C17.92 10.9176 17.7277 11.1519 17.6142 11.426C17.5007 11.7001 17.4709 12.0017 17.5288 12.2926C17.5867 12.5836 17.7296 12.8509 17.9393 13.0607C18.1491 13.2704 18.4164 13.4133 18.7074 13.4712C18.9983 13.5291 19.2999 13.4994 19.574 13.3858C19.8481 13.2723 20.0824 13.08 20.2472 12.8334C20.412 12.5867 20.5 12.2967 20.5 12C20.5 11.6022 20.342 11.2206 20.0607 10.9393C19.7794 10.658 19.3978 10.5 19 10.5Z" fill="#97979B"/>
<path d="M7.27827 35.973L7.27177 37H1.53227V27.6855H7.27177V28.7125H2.79327V31.8065H6.42027V32.7945H2.79327V35.973H7.27827ZM18.653 36.1225V38.911C18.653 39.0237 18.6205 39.1103 18.5555 39.171C18.4948 39.236 18.4146 39.2685 18.315 39.2685H17.6V37H8.58447V30.4155H9.74797V36.1225H12.4325V30.4155H13.596V36.1225H16.2805V30.4155H17.444V36.1225H18.653ZM24.1126 32.9895C24.1126 32.7208 24.0736 32.476 23.9956 32.255C23.9219 32.0297 23.8114 31.8368 23.6641 31.6765C23.5211 31.5118 23.3456 31.3862 23.1376 31.2995C22.9296 31.2085 22.6934 31.163 22.4291 31.163C21.8744 31.163 21.4346 31.3255 21.1096 31.6505C20.7889 31.9712 20.5896 32.4175 20.5116 32.9895H24.1126ZM25.0486 36.077C24.9056 36.2503 24.7344 36.402 24.5351 36.532C24.3357 36.6577 24.1212 36.7617 23.8916 36.844C23.6662 36.9263 23.4322 36.987 23.1896 37.026C22.9469 37.0693 22.7064 37.091 22.4681 37.091C22.0131 37.091 21.5927 37.0152 21.2071 36.8635C20.8257 36.7075 20.4942 36.4822 20.2126 36.1875C19.9352 35.8885 19.7186 35.5202 19.5626 35.0825C19.4066 34.6448 19.3286 34.1422 19.3286 33.5745C19.3286 33.1152 19.3979 32.6862 19.5366 32.2875C19.6796 31.8888 19.8832 31.5443 20.1476 31.254C20.4119 30.9593 20.7347 30.7297 21.1161 30.565C21.4974 30.396 21.9264 30.3115 22.4031 30.3115C22.7974 30.3115 23.1614 30.3787 23.4951 30.513C23.8331 30.643 24.1234 30.8337 24.3661 31.085C24.6131 31.332 24.8059 31.6397 24.9446 32.008C25.0832 32.372 25.1526 32.788 25.1526 33.256C25.1526 33.438 25.1331 33.5593 25.0941 33.62C25.0551 33.6807 24.9814 33.711 24.8731 33.711H20.4726C20.4856 34.127 20.5419 34.4888 20.6416 34.7965C20.7456 35.1042 20.8886 35.362 21.0706 35.57C21.2526 35.7737 21.4692 35.9275 21.7206 36.0315C21.9719 36.1312 22.2536 36.181 22.5656 36.181C22.8559 36.181 23.1051 36.1485 23.3131 36.0835C23.5254 36.0142 23.7074 35.9405 23.8591 35.8625C24.0107 35.7845 24.1364 35.713 24.2361 35.648C24.3401 35.5787 24.4289 35.544 24.5026 35.544C24.5979 35.544 24.6716 35.5808 24.7236 35.6545L25.0486 36.077ZM21.9221 28.6215C21.9221 28.7212 21.9026 28.8143 21.8636 28.901C21.8246 28.9877 21.7704 29.0635 21.7011 29.1285C21.6317 29.1935 21.5516 29.2455 21.4606 29.2845C21.3739 29.3235 21.2807 29.343 21.1811 29.343C21.0857 29.343 20.9947 29.3235 20.9081 29.2845C20.8214 29.2455 20.7434 29.1935 20.6741 29.1285C20.6091 29.0635 20.5571 28.9877 20.5181 28.901C20.4791 28.8143 20.4596 28.7212 20.4596 28.6215C20.4596 28.5218 20.4791 28.4265 20.5181 28.3355C20.5571 28.2445 20.6091 28.1665 20.6741 28.1015C20.7434 28.0322 20.8214 27.978 20.9081 27.939C20.9947 27.9 21.0857 27.8805 21.1811 27.8805C21.2807 27.8805 21.3739 27.9 21.4606 27.939C21.5516 27.978 21.6317 28.0322 21.7011 28.1015C21.7704 28.1665 21.8246 28.2445 21.8636 28.3355C21.9026 28.4265 21.9221 28.5218 21.9221 28.6215ZM24.3986 28.6215C24.3986 28.7212 24.3791 28.8143 24.3401 28.901C24.3011 28.9877 24.2469 29.0635 24.1776 29.1285C24.1126 29.1935 24.0346 29.2455 23.9436 29.2845C23.8569 29.3235 23.7637 29.343 23.6641 29.343C23.5644 29.343 23.4691 29.3235 23.3781 29.2845C23.2914 29.2455 23.2156 29.1935 23.1506 29.1285C23.0856 29.0635 23.0336 28.9877 22.9946 28.901C22.9556 28.8143 22.9361 28.7212 22.9361 28.6215C22.9361 28.5218 22.9556 28.4265 22.9946 28.3355C23.0336 28.2445 23.0856 28.1665 23.1506 28.1015C23.2156 28.0322 23.2914 27.978 23.3781 27.939C23.4691 27.9 23.5644 27.8805 23.6641 27.8805C23.7637 27.8805 23.8569 27.9 23.9436 27.939C24.0346 27.978 24.1126 28.0322 24.1776 28.1015C24.2469 28.1665 24.3011 28.2445 24.3401 28.3355C24.3791 28.4265 24.3986 28.5218 24.3986 28.6215Z" fill="#97979B"/>
</svg>
